
<svg width="214px" height="63px" viewBox="0 0 214 63" version="1.1" xmlns="http://www.w3.org/2000/svg" xmlns:xlink="http://www.w3.org/1999/xlink">
    <!-- Generator: Sketch 50.2 (55047) - http://www.bohemiancoding.com/sketch -->
    <desc>Created with Sketch.</desc>
    <defs>
        <rect id="path-1" x="0" y="0" width="212" height="40" rx="2"></rect>
    </defs>
    <g id="Inputs" stroke="none" stroke-width="1" fill="none" fill-rule="evenodd">
        <g id="Inputs---v1.2" transform="translate(-267.000000, -8642.000000)">
            <g id="date-picker" transform="translate(266.000000, 8638.000000)">
                <g id="field" transform="translate(2.000000, 26.000000)">
                    <mask id="mask-2" fill="white">
                        <use xlink:href="#path-1"></use>
                    </mask>
                    <use stroke="#36495A" stroke-width="2" fill="#FFFFFF" stroke-linecap="square" xlink:href="#path-1"></use>
                    <g id="color/blue90" mask="url(#mask-2)" fill="#00467F">
                        <g transform="translate(170.000000, 0.000000)" id="blue-base*">
                            <rect x="0" y="0" width="42" height="40"></rect>
                        </g>
                    </g>
                    <path d="M196.853659,22.5279503 L198.121951,23.6666667 L197,24.7142857 L195.780488,23.5300207 L194.512195,24.7142857 L193.390244,23.6666667 L194.658537,22.5279503 L193.390244,21.3436853 L194.512195,20.2960663 L195.780488,21.4803313 L197,20.2960663 L198.121951,21.3436853 L196.853659,22.5279503 Z M181,15.3768116 L181,13.0993789 C181,12.7349878 181.08943,12.3933763 181.268293,12.0745342 C181.447155,11.755692 181.682925,11.4824028 181.97561,11.2546584 C182.268294,11.026914 182.617884,10.8371298 183.02439,10.6853002 C183.430896,10.5334706 183.878046,10.4575569 184.365854,10.4575569 L184.95122,10.4575569 L184.95122,11.6873706 L184.365854,11.6873706 C184.10569,11.6873706 183.86992,11.7253274 183.658537,11.8012422 C183.447153,11.877157 183.260163,11.9834362 183.097561,12.1200828 C182.934959,12.2567295 182.804879,12.4085568 182.707317,12.5755694 C182.609756,12.7425819 182.560976,12.9171834 182.560976,13.0993789 L182.560976,14.1469979 L199.439024,14.1469979 L199.439024,13.0993789 C199.439024,12.9171834 199.390244,12.7425819 199.292683,12.5755694 C199.195121,12.4085568 199.065041,12.2567295 198.902439,12.1200828 C198.739837,11.9834362 198.552847,11.877157 198.341463,11.8012422 C198.13008,11.7253274 197.89431,11.6873706 197.634146,11.6873706 L196.658537,11.6873706 L196.658537,10.5031056 L197.634146,10.5031056 C198.121954,10.5031056 198.569104,10.5714279 198.97561,10.7080745 C199.382116,10.8447212 199.731706,11.026914 200.02439,11.2546584 C200.317075,11.4824028 200.552845,11.755692 200.731707,12.0745342 C200.91057,12.3933763 201,12.7349878 201,13.0993789 L201,15.3768116 L181,15.3768116 Z M186.414634,9 L187.195122,9 C187.292683,9 187.390243,9.0227741 187.487805,9.06832298 C187.585366,9.11387186 187.674796,9.16701143 187.756098,9.22774327 C187.837399,9.28847511 187.894309,9.36438878 187.926829,9.45548654 C187.95935,9.54658431 187.97561,9.6376807 187.97561,9.72877847 L187.97561,11.9606625 L186.414634,11.9606625 L186.414634,9 Z M193.731707,9 L194.512195,9 C194.642277,9 194.756097,9.0227741 194.853659,9.06832298 C194.95122,9.11387186 195.03252,9.15942006 195.097561,9.20496894 C195.162602,9.25051783 195.219512,9.31884012 195.268293,9.40993789 C195.317073,9.50103565 195.341463,9.59213205 195.341463,9.68322981 L195.341463,11.9606625 L193.731707,11.9606625 L193.731707,9 Z M189.439024,10.4575569 L192.317073,10.4575569 L192.317073,11.9606625 L189.439024,11.9606625 L189.439024,10.4575569 Z M199.439024,17.3809524 L201,17.3809524 L201,31 L181,31 L181,17.3809524 L182.560976,17.3809524 L182.560976,29.4968944 L199.439024,29.4968944 L199.439024,17.3809524 Z" id="calendar" fill="#FFFFFF" mask="url(#mask-2)"></path>
                </g>
                <text id="text/field-label" font-family="AmericanSansMedium, AmericanSans Medium" font-size="16" font-weight="normal" letter-spacing="0.370000005" fill="#131313">
                    <tspan x="1" y="15.5">Label</tspan>
                </text>
                <g id="data" transform="translate(14.000000, 35.000000)" fill="#131313" font-family="AmericanSans" font-size="18" font-weight="normal" letter-spacing="0.360000014" line-spacing="24">
                    <text id="15-MAY-2018">
                        <tspan x="0" y="18">15 MAY 2018</tspan>
                    </text>
                </g>
            </g>
        </g>
    </g>
</svg>